<?xml version="1.0" encoding="utf-8"?>
<!-- Generator: Adobe Illustrator 17.0.0, SVG Export Plug-In . SVG Version: 6.00 Build 0)  -->
<!DOCTYPE svg PUBLIC "-//W3C//DTD SVG 1.1//EN" "http://www.w3.org/Graphics/SVG/1.1/DTD/svg11.dtd">
<svg version="1.1" id="Capa_1" xmlns="http://www.w3.org/2000/svg" xmlns:xlink="http://www.w3.org/1999/xlink" x="0px" y="0px"
	 width="25px" height="25px" viewBox="293.5 293.5 25 25" enable-background="new 293.5 293.5 25 25" xml:space="preserve">
<g>
	<g id="Right">
		<g>
			<path fill="#FFFFFF" d="M307.161,311.16l0.002-0.003c0.209,0.192,0.484,0.312,0.79,0.312c0.647,0,1.172-0.525,1.172-1.172
				c0-0.342-0.148-0.647-0.382-0.861l0.002-0.003L305,306l3.745-3.434l-0.002-0.003c0.234-0.213,0.382-0.518,0.382-0.86
				c0-0.647-0.525-1.172-1.172-1.172c-0.305,0-0.58,0.12-0.79,0.311l-0.002-0.003l-4.688,4.297c-0.241,0.223-0.38,0.535-0.38,0.864
				c0,0.329,0.138,0.641,0.38,0.864L307.161,311.16z M306,318.5c6.903,0,12.5-5.597,12.5-12.5s-5.597-12.5-12.5-12.5
				s-12.5,5.597-12.5,12.5S299.097,318.5,306,318.5z M306,295.844c5.6,0,10.156,4.556,10.156,10.156S311.6,316.156,306,316.156
				S295.844,311.6,295.844,306S300.4,295.844,306,295.844z"/>
		</g>
	</g>
</g>
</svg>
